<svg width="550" height="550" viewBox="0 0 550 550" fill="none" xmlns="http://www.w3.org/2000/svg">
<g opacity="0.3" filter="url(#filter0_f_0_1)">
</g>
<g clip-path="url(#clip0_0_1)">
<rect width="550" height="550" rx="90" fill="black"/>
<rect x="167" y="277.318" width="73.6946" height="146.658" rx="36.8473" fill="white"/>
<rect width="72.257" height="164.874" rx="36.1285" transform="matrix(0.857755 -0.514058 0.633198 0.77399 251.787 305.116)" fill="white"/>
<rect x="167" y="117" width="202.066" height="150.972" rx="40" fill="white"/>
<g opacity="0.3" filter="url(#filter1_f_0_1)">
<path opacity="0.5" d="M89.3296 243.934C84.5849 262.405 66.1489 271.298 63.2925 291.15C62.8874 296.491 57.7171 306.53 40.2835 303.959C23.4817 314.986 -28.5375 293.56 -41.2402 311.989C-50.5921 325.557 -60.8847 342.478 -57.2524 366.873C-54.4509 385.682 -45.1265 404.223 -35.6785 420.232C-21.987 443.42 -5.83063 464.509 11.6235 481.206C68.504 535.636 133.631 549.805 189.99 549.999C258.66 550.239 318.149 520.299 368.225 472.417C388.879 452.671 407.377 429.814 421.597 400.718C434.684 373.93 445.334 343.979 453.553 312.271C464.025 271.906 469.923 226.649 465.535 177.685C462.205 140.443 448.053 104.93 428.457 72.5091C401.678 28.1863 365.678 3.01992 330.818 0.183517C309.312 -1.5653 285.438 8.95165 284.443 41.7808C283.687 66.8247 293.932 94.9709 300.578 120.683C305.014 137.866 311.063 162.201 300.922 171.163C283.77 186.323 259.882 190.678 238.253 193.748C210.623 197.671 181.043 189.23 152.287 187.165C135.725 185.976 122.308 195.146 110.526 206.36C101.057 215.378 93.4013 228.097 89.3296 243.934Z" fill="white" fill-opacity="0.9"/>
</g>
</g>
<defs>
<filter id="filter0_f_0_1" x="-408" y="547" width="979" height="1050" filterUnits="userSpaceOnUse" color-interpolation-filters="sRGB">
<feFlood flood-opacity="0" result="BackgroundImageFix"/>
<feBlend mode="normal" in="SourceGraphic" in2="BackgroundImageFix" result="shape"/>
<feGaussianBlur stdDeviation="125" result="effect1_foregroundBlur_0_1"/>
</filter>
<filter id="filter1_f_0_1" x="-308" y="-250" width="1025" height="1050" filterUnits="userSpaceOnUse" color-interpolation-filters="sRGB">
<feFlood flood-opacity="0" result="BackgroundImageFix"/>
<feBlend mode="normal" in="SourceGraphic" in2="BackgroundImageFix" result="shape"/>
<feGaussianBlur stdDeviation="125" result="effect1_foregroundBlur_0_1"/>
</filter>
<clipPath id="clip0_0_1">
<rect width="550" height="550" rx="90" fill="white"/>
</clipPath>
</defs>
</svg>
