<svg width="550" height="550" viewBox="0 0 550 550" fill="none" xmlns="http://www.w3.org/2000/svg">
<g clip-path="url(#clip0_21_8)">
<rect x="167" y="277.318" width="73.6946" height="146.658" rx="36.8473" fill="white"/>
<rect width="72.257" height="164.874" rx="36.1285" transform="matrix(0.857755 -0.514058 0.633198 0.77399 251.787 305.116)" fill="white"/>
<rect x="167" y="117" width="202.066" height="150.972" rx="40" fill="white"/>
<g style="mix-blend-mode:overlay">
<rect width="550" height="550" rx="90" fill="black"/>
</g>
<g opacity="0.3" filter="url(#filter0_f_21_8)">
<path opacity="0.5" d="M169.859 230.139C165.549 245.218 148.798 252.478 146.203 268.684C145.835 273.045 141.137 281.24 125.298 279.141C110.032 288.143 62.7688 270.652 51.2275 285.697C42.7306 296.773 33.3791 310.587 36.6793 330.502C39.2246 345.857 47.6965 360.993 56.2807 374.062C68.7204 392.992 83.3996 410.208 99.258 423.839C150.938 468.274 210.11 479.841 261.316 479.999C323.708 480.195 377.759 455.753 423.256 416.664C442.022 400.544 458.828 381.884 471.748 358.132C483.639 336.263 493.315 311.812 500.782 285.927C510.297 252.974 515.656 216.028 511.669 176.055C508.644 145.653 495.785 116.661 477.981 90.1938C453.65 54.0103 420.942 33.4654 389.269 31.1498C369.73 29.7221 348.038 38.3078 347.134 65.1083C346.447 85.5532 355.755 108.531 361.794 129.521C365.824 143.549 371.32 163.415 362.106 170.731C346.522 183.108 324.818 186.662 305.167 189.169C280.063 192.371 253.187 185.48 227.061 183.795C212.013 182.824 199.823 190.31 189.118 199.465C180.515 206.827 173.559 217.21 169.859 230.139Z" fill="white" fill-opacity="0.9"/>
</g>
</g>
<defs>
<filter id="filter0_f_21_8" x="-214" y="-219" width="977" height="949" filterUnits="userSpaceOnUse" color-interpolation-filters="sRGB">
<feFlood flood-opacity="0" result="BackgroundImageFix"/>
<feBlend mode="normal" in="SourceGraphic" in2="BackgroundImageFix" result="shape"/>
<feGaussianBlur stdDeviation="125" result="effect1_foregroundBlur_21_8"/>
</filter>
<clipPath id="clip0_21_8">
<rect width="550" height="550" fill="white"/>
</clipPath>
</defs>
</svg>
