<svg width="512" height="512" viewBox="0 0 512 512" fill="none" xmlns="http://www.w3.org/2000/svg">
<path opacity="0.5" d="M368.32 227.08C372.947 244.276 390.927 252.554 393.712 271.034C394.107 276.006 399.15 285.351 416.152 282.958C432.538 293.223 483.269 273.278 495.657 290.434C504.775 303.064 514.813 318.816 511.271 341.526C508.539 359.035 499.447 376.295 490.233 391.198C476.881 412.784 461.124 432.415 444.102 447.959C388.63 498.628 325.115 511.818 270.152 511.999C203.182 512.222 145.165 484.351 96.3287 439.777C76.1862 421.395 58.1463 400.118 44.2782 373.032C31.515 348.095 21.129 320.213 13.1136 290.696C2.90167 253.12 -2.85048 210.99 1.42847 165.408C4.67618 130.74 18.4773 97.68 37.5886 67.4994C63.7042 26.2389 98.8131 2.81127 132.81 0.170838C153.783 -1.45715 177.066 8.33317 178.037 38.8941C178.774 62.2077 168.783 88.4093 162.301 112.345C157.975 128.34 152.076 150.995 161.966 159.337C178.693 173.45 201.99 177.504 223.083 180.362C250.029 184.013 278.877 176.156 306.921 174.234C323.073 173.127 336.157 181.663 347.648 192.103C356.883 200.497 364.349 212.338 368.32 227.08Z" fill="#FF1CF7"/>
<path d="M0 114C0 51.0395 51.0395 0 114 0H398C460.96 0 512 51.0395 512 114V398C512 460.96 460.96 512 398 512H114C51.0395 512 0 460.96 0 398V114Z" fill="black"/>
<path d="M284.148 361L240.348 281.5H228.048V361H176.748V150.4H262.848C279.448 150.4 293.548 153.3 305.148 159.1C316.948 164.9 325.748 172.9 331.548 183.1C337.348 193.1 340.248 204.3 340.248 216.7C340.248 230.7 336.248 243.2 328.248 254.2C320.448 265.2 308.848 273 293.448 277.6L342.048 361H284.148ZM228.048 245.2H259.848C269.248 245.2 276.248 242.9 280.848 238.3C285.648 233.7 288.048 227.2 288.048 218.8C288.048 210.8 285.648 204.5 280.848 199.9C276.248 195.3 269.248 193 259.848 193H228.048V245.2Z" fill="url(#paint0_linear_940_30)"/>
<defs>
<linearGradient id="paint0_linear_940_30" x1="419" y1="432" x2="-64.6517" y2="-283.686" gradientUnits="userSpaceOnUse">
<stop stop-color="#FF1CF7"/>
<stop offset="0.5" stop-color="#3391FF" stop-opacity="0.56"/>
<stop offset="1" stop-color="#0076FF" stop-opacity="0"/>
<stop offset="1" stop-color="#9E00FF" stop-opacity="0"/>
</linearGradient>
</defs>
</svg>
